
        <svg xmlns="http://www.w3.org/2000/svg" xmlns:xlink="http://www.w3.org/1999/xlink" version="1.1" width="3162.1621621621625" 
        height="796.7097532314924" viewBox="0 0 3162.1621621621625 796.7097532314924">
			
			<g transform="scale(8.108108108108109) translate(10, 10)">
				<defs id="SvgjsDefs1390"></defs><g id="SvgjsG1391" featureKey="symbolFeature-0" transform="matrix(0.8695652173913043,0,0,0.8695652173913043,-18.47826086956522,-4.3478260869565215)" fill="#00adb5"><g xmlns="http://www.w3.org/2000/svg"><path d="M42.557,5C36.86,5,31.51,7.219,27.498,11.244c-4.029,4.017-6.248,9.37-6.248,15.074v20.591   c0,9.413,6.049,17.544,14.876,20.303v6.481C36.125,85.441,45.688,95,57.443,95c11.749,0,21.307-9.559,21.307-21.307V53.091   c0-9.413-6.049-17.544-14.876-20.303v-6.469C63.875,14.563,54.312,5,42.557,5z M25.25,46.909V26.318   c0-4.634,1.801-8.981,5.077-12.246C33.587,10.802,37.931,9,42.557,9c9.549,0,17.318,7.769,17.318,17.318v5.62   c-1.234-0.142-2.49-0.184-3.754-0.105v-5.515c0-7.479-6.085-13.564-13.564-13.564c-7.473,0-13.553,6.085-13.553,13.564v20.591   c0,5.033,2.761,9.573,7.122,11.919v0.074l1.221,0.516c0.378,0.16,0.764,0.298,1.156,0.422c0.191,0.06,0.386,0.106,0.58,0.157   c0.198,0.052,0.395,0.108,0.595,0.151c0.228,0.05,0.459,0.087,0.69,0.124c0.178,0.029,0.356,0.058,0.535,0.08   c0.225,0.027,0.452,0.047,0.68,0.063c0.204,0.015,0.407,0.024,0.611,0.03c0.121,0.003,0.241,0.018,0.363,0.018   c0.11,0,0.218-0.009,0.328-0.012c0.109-0.002,0.218-0.007,0.327-0.012c0.261-0.012,0.52-0.033,0.778-0.06   c0.113-0.012,0.225-0.022,0.338-0.037c0.268-0.035,0.534-0.08,0.798-0.131c0.095-0.018,0.19-0.032,0.284-0.053   c0.353-0.076,0.703-0.163,1.046-0.268c0.003-0.001,0.005-0.002,0.008-0.003c0,0,0.001,0,0.001,0c0.001,0,0.001,0,0.002-0.001   c5.685-1.712,9.656-7.047,9.656-12.979v-3.276c1.241-0.171,2.531-0.093,3.754,0.228v3.048c0,8.439-6.029,15.61-14.335,17.049   c-1.224,0.211-2.451,0.286-3.655,0.24c-1.123-0.043-2.23-0.19-3.303-0.45h0C30.732,61.913,25.25,54.989,25.25,46.909z    M36.125,53.091v0.853c-1.947-1.776-3.122-4.295-3.122-7.034V26.318c0-5.273,4.286-9.564,9.553-9.564   c5.273,0,9.564,4.291,9.564,9.564v6.137c-3.686,0.939-7.03,2.845-9.747,5.572C38.345,42.044,36.125,47.394,36.125,53.091z    M47.879,54.828v-1.737c0-3.211,1.655-6.169,4.241-7.919v1.737C52.121,50.12,50.466,53.078,47.879,54.828z M66.997,53.091v20.603   c0,5.268-4.286,9.553-9.553,9.553c-5.273,0-9.564-4.285-9.564-9.553v-6.158c9.362-2.392,15.995-10.807,15.995-20.626v-0.853   C65.821,47.832,66.997,50.352,66.997,53.091z M74.75,53.091v20.603C74.75,83.236,66.986,91,57.443,91   c-9.549,0-17.318-7.764-17.318-17.307v-5.615c0.06,0.007,0.122,0.008,0.182,0.014c0.396,0.042,0.794,0.074,1.194,0.094   c0.138,0.007,0.276,0.008,0.414,0.012c0.214,0.006,0.426,0.019,0.641,0.019c0.094,0,0.189-0.011,0.283-0.012   c0.346-0.005,0.693-0.023,1.04-0.044v5.533c0,7.473,6.085,13.553,13.564,13.553c7.473,0,13.553-6.08,13.553-13.553V53.091   c0-5.485-3.275-10.394-8.333-12.504c-0.009-0.004-0.017-0.007-0.026-0.01c-2.848-1.199-6.18-1.355-9.092-0.468   c-5.691,1.709-9.666,7.047-9.666,12.982v3.271c-0.364,0.05-0.733,0.085-1.103,0.093c-0.058,0.001-0.116-0.002-0.174-0.001   c-0.344,0.002-0.688-0.017-1.029-0.051c-0.08-0.008-0.16-0.012-0.24-0.022c-0.358-0.045-0.711-0.115-1.058-0.2   c-0.051-0.012-0.1-0.027-0.151-0.041v-3.048c0-4.627,1.801-8.971,5.078-12.236c2.535-2.544,5.735-4.208,9.258-4.813   c2.362-0.409,4.731-0.33,6.958,0.21C69.269,38.087,74.75,45.011,74.75,53.091z"></path></g></g><g id="SvgjsG1392" featureKey="nameFeature-0" transform="matrix(1.0511562943789379,0,0,1.0511562943789379,68.1920111435944,8.025927725305863)" fill="#393e46"><path d="M1.72 31.4 l2.64 0 c0.44 5.16 3.88 7.04 8.28 7.04 c5.16 0 7.32 -2.8 7.32 -5.96 c0 -8.92 -17.56 -3 -17.56 -14.32 c0 -4 3.32 -7.72 9.76 -7.72 c6.48 0 9.72 3.92 9.68 8.6 l-2.6 0 c0 -4.4 -3.4 -6.28 -7.08 -6.28 c-5.52 0 -7.52 3.4 -7.04 6.36 c1.24 7.44 17.56 2.08 17.56 13.24 c0 5.28 -3.88 8.4 -10.52 8.4 c-6 0 -10.44 -3.12 -10.44 -9.36 z M34.6 38.12 l0 1.96 c-0.56 0.12 -1.6 0.48 -2.76 0.48 c-2.36 0 -3.68 -1.04 -3.68 -4.12 l0 -15.16 l-2.92 0 l0 -2 l2.92 0 l0 -5.76 l2.4 0 l0 5.76 l3.88 0 l0 2 l-3.88 0 l0 14.2 c0 2.04 0.08 2.92 2.08 2.92 c0.64 0 1.32 -0.12 1.96 -0.28 z M40.96 29.84 l0 10.16 l-2.4 0 l0 -20.72 l2.4 0 l0 3.88 l0.08 0 c1.32 -3.32 3.28 -4.44 6.76 -4.44 l0 2.6 c-5.4 -0.12 -6.84 3.88 -6.84 8.52 z M65.32000000000001 32.36 l0 -3.24 c-2.04 0.84 -4.12 1 -6.2 1.16 c-3.64 0.28 -5.84 1.6 -5.84 4.4 c0 2.52 2.2 3.72 4.48 3.72 c3.8 0 7.56 -1.84 7.56 -6.04 z M57.96 28.36 l3.32 -0.44 c0.88 -0.08 2.36 -0.32 3.16 -0.68 s0.88 -1.44 0.88 -2.16 c0 -2.44 -1.44 -4.2 -5.16 -4.2 c-3.32 0 -5.6 1.08 -6.04 4.68 l-2.44 0 c0.36 -4.88 4 -6.84 8.52 -6.84 c4.2 0 7.52 1.64 7.52 6.44 l0 11.28 c0 1.88 0.48 2.32 2.52 1.6 l0 1.88 c-0.36 0.12 -1.2 0.4 -1.88 0.4 c-0.4 0 -0.72 -0.04 -1.08 -0.12 c-1.6 -0.24 -1.88 -1.64 -1.92 -3.08 c-2 2.24 -4.72 3.44 -7.72 3.44 c-3.64 0 -6.92 -1.96 -6.92 -5.96 c0 -3.48 2.4 -5.6 7.24 -6.24 z M81.28 38.12 l0 1.96 c-0.56 0.12 -1.6 0.48 -2.76 0.48 c-2.36 0 -3.68 -1.04 -3.68 -4.12 l0 -15.16 l-2.92 0 l0 -2 l2.92 0 l0 -5.76 l2.4 0 l0 5.76 l3.88 0 l0 2 l-3.88 0 l0 14.2 c0 2.04 0.08 2.92 2.08 2.92 c0.64 0 1.32 -0.12 1.96 -0.28 z M86.60000000000001 28.2 l13.52 0 c0 -4.04 -2.24 -7.32 -6.56 -7.32 c-4.24 0 -6.48 3.4 -6.96 7.32 z M102.68 30.2 l-16.08 0 c-0.04 4.48 2.36 8.2 6.96 8.2 c3.12 0 5.56 -1.72 6.28 -4.76 l2.68 0 c-1.2 3.92 -3.68 6.92 -8.96 6.92 c-6.64 0 -9.52 -4.72 -9.52 -10.84 c0 -6.04 3.6 -11 9.52 -11 c5.68 0 9.16 4.04 9.12 11.48 z M123.36000000000001 29.72 c0 -5 -2.48 -8.84 -7 -8.84 c-4.04 0 -7.04 2.92 -7.08 8.12 c-0.2 5.2 2.12 9.4 7.08 9.4 c4.36 0 7 -4 7 -8.68 z M123.36000000000001 22.92 l0 -3.64 l2.4 0 l0 18.72 c0 5.56 -1.84 10.48 -9.72 10.48 c-6.08 0 -8.6 -3.48 -8.76 -5.96 l2.56 0 c0.72 3.12 3.36 3.8 6.2 3.8 c6.56 0 7.44 -4.88 7.32 -9.64 c-1.52 2.52 -4.48 3.88 -7.4 3.88 c-6.32 0 -9.24 -5.16 -9.24 -10.96 c0 -6.12 2.68 -10.88 9.36 -10.88 c2.64 0 5.8 1.48 7.2 4.2 l0.08 0 z M134.56 40 l-2.4 0 l0 -20.72 l2.4 0 l0 20.72 z M134.68 14.760000000000002 l-2.64 0 l0 -3.56 l2.64 0 l0 3.56 z M157.8 25.8 l-2.44 0 c-0.84 -3.08 -2.96 -4.92 -6.16 -4.92 c-4.92 0 -6.96 4.48 -6.96 8.8 c0 4.36 2 8.72 6.96 8.72 c3.56 0 5.8 -2.12 6.36 -5.56 l2.56 0 c-0.84 4.6 -3.72 7.72 -8.92 7.72 c-6.6 0 -9.52 -4.76 -9.52 -10.88 c0 -5.76 3.32 -10.96 9.52 -10.96 c4.76 0 7.88 2.28 8.6 7.08 z M177.08 40 l-2.72 0 l0 -28.8 l2.72 0 l0 12.36 l17.04 0 l0 -12.36 l2.72 0 l0 28.8 l-2.72 0 l0 -14.12 l-17.04 0 l0 14.12 z M211.16000000000003 40.56 c-5.28 -0.08 -9.6 -3.68 -9.6 -10.92 c0 -6.04 3.2 -10.92 9.6 -10.92 c6.48 0 9.6 4.84 9.6 10.92 c0 6.56 -3.8 10.92 -9.6 10.92 z M218.20000000000002 29.64 c-0.04 -4.88 -1.96 -8.76 -7.04 -8.76 c-5.04 0 -7.04 4.28 -7.04 8.76 c0 5.16 2.44 8.76 7.04 8.76 c5.04 0 7.04 -4.32 7.04 -8.76 z M227.84000000000003 29.72 c0 4.68 2.64 8.68 7 8.68 c4.96 0 7.28 -4.2 7.08 -9.4 c-0.04 -5.2 -3.04 -8.12 -7.08 -8.12 c-4.52 0 -7 3.84 -7 8.84 z M227.84000000000003 36.68 l0 11.48 l-2.4 0 l0 -28.88 l2.4 0 l0 3.64 l0.08 0 c1.4 -2.72 4.56 -4.2 7.2 -4.2 c6.68 0 9.36 4.76 9.36 10.88 c0 5.8 -2.92 10.96 -9.24 10.96 c-2.92 0 -5.88 -1.36 -7.4 -3.88 z M251.08000000000004 28.2 l13.52 0 c0 -4.04 -2.24 -7.32 -6.56 -7.32 c-4.24 0 -6.48 3.4 -6.96 7.32 z M267.16 30.2 l-16.08 0 c-0.04 4.48 2.36 8.2 6.96 8.2 c3.12 0 5.56 -1.72 6.28 -4.76 l2.68 0 c-1.2 3.92 -3.68 6.92 -8.96 6.92 c-6.64 0 -9.52 -4.72 -9.52 -10.84 c0 -6.04 3.6 -11 9.52 -11 c5.68 0 9.16 4.04 9.12 11.48 z M270.8 33.519999999999996 l2.44 0 c0.76 3.56 2.6 4.88 6.2 4.88 c3.48 0 5.12 -1.84 5.12 -3.84 c0 -6 -13.28 -1.76 -13.28 -9.92 c0 -3.44 2.68 -5.92 7.28 -5.92 c4.48 0 7.4 1.84 8 6.52 l-2.44 0 c-0.44 -3.2 -2.6 -4.36 -5.6 -4.36 c-3.04 0 -4.68 1.44 -4.68 3.56 c0 5.64 13.28 2.12 13.28 10.08 c0 3.96 -3.56 6.04 -8.44 6.04 s-7.68 -3.12 -7.88 -7.04 z"></path></g>
			</g>
		</svg>
	